<svg fill="#1C2033" width="52" height="52" viewBox="0 0 64 64" xmlns="http://www.w3.org/2000/svg"><path d="M32.1 43.6004C38.5065 43.6004 43.7 38.4069 43.7 32.0004C43.7 25.5939 38.5065 20.4004 32.1 20.4004C25.6935 20.4004 20.5 25.5939 20.5 32.0004C20.5 38.4069 25.6935 43.6004 32.1 43.6004Z"/><path d="M44.7 1H19.3C9.2 1 1 9.2 1 19.3V44.5C1 54.8 9.2 63 19.3 63H44.5C54.8 63 63 54.8 63 44.7V19.3C63 9.2 54.8 1 44.7 1ZM32.1 47.2C23.6 47.2 16.9 40.3 16.9 32C16.9 23.7 23.7 16.8 32.1 16.8C40.4 16.8 47.2 23.7 47.2 32C47.2 40.3 40.5 47.2 32.1 47.2ZM53.1 18.2C52.1 19.3 50.6 19.9 48.9 19.9C47.4 19.9 45.9 19.3 44.7 18.2C43.6 17.1 43 15.7 43 14C43 12.3 43.6 11 44.7 9.8C45.8 8.6 47.2 8 48.9 8C50.4 8 52 8.6 53.1 9.7C54.1 11 54.8 12.5 54.8 14.1C54.7 15.7 54.1 17.1 53.1 18.2Z"/><path d="M49.0016 11.5996C47.7016 11.5996 46.6016 12.6996 46.6016 13.9996C46.6016 15.2996 47.7016 16.3996 49.0016 16.3996C50.3016 16.3996 51.4016 15.2996 51.4016 13.9996C51.4016 12.6996 50.4016 11.5996 49.0016 11.5996Z"/></svg>